<svg t="1685421574781" class="icon" viewBox="0 0 1024 1024" version="1.1" xmlns="http://www.w3.org/2000/svg" p-id="3358" xmlns:xlink="http://www.w3.org/1999/xlink" width="200" height="200"><path d="M942.930731 307.720041A337.274351 337.274351 0 0 0 631.944438 101.599994H476.511498a337.379714 337.379714 0 0 0-334.406973 291.336102h-50.122664a37.629627 37.629627 0 1 0 0 75.259255h47.006931v97.265061h-47.006931a37.629627 37.629627 0 1 0 0 75.259255h50.13019a337.31198 337.31198 0 0 0 334.406973 291.351153h155.425414A337.274351 337.274351 0 0 0 969.47467 594.548114V439.107649a335.453077 335.453077 0 0 0-26.543939-131.387608zM894.215415 594.548114c0 144.610658-117.652793 262.263451-262.263452 262.263451H476.511498c-128.866422 0-236.31406-93.419313-258.191925-216.091898h25.031228a37.629627 37.629627 0 0 0 0-75.259255h-29.102754V468.195351h29.102754a37.629627 37.629627 0 0 0 0-75.259255h-25.031228C240.197438 270.26351 347.652602 176.859249 476.511498 176.859249h155.43294c144.618184 0 262.263451 117.652793 262.263451 262.263452z" fill="#333333" p-id="3359"></path><path d="M401.229666 240.746831a37.629627 37.629627 0 0 0-37.629628 37.629627v476.902846a37.629627 37.629627 0 0 0 75.259255 0V278.376458a37.629627 37.629627 0 0 0-37.629627-37.629627z" fill="#0000FF" p-id="3360"></path></svg>